<svg preserveAspectRatio="none" width="100%" height="100%" overflow="visible" style="display: block;" viewBox="0 0 21 21" fill="none" xmlns="http://www.w3.org/2000/svg">
<g id="Frame">
<path id="Vector" d="M14.875 18.375V16.625C14.875 15.6967 14.5063 14.8065 13.8499 14.1501C13.1935 13.4937 12.3033 13.125 11.375 13.125H4.375C3.44674 13.125 2.5565 13.4937 1.90013 14.1501C1.24375 14.8065 0.875 15.6967 0.875 16.625V18.375M20.125 18.375V16.625C20.1244 15.8495 19.8663 15.0962 19.3912 14.4833C18.9161 13.8704 18.2509 13.4326 17.5 13.2388M14 2.73875C14.7529 2.93151 15.4202 3.36936 15.8967 3.98327C16.3732 4.59718 16.6319 5.35223 16.6319 6.12938C16.6319 6.90652 16.3732 7.66157 15.8967 8.27548C15.4202 8.88939 14.7529 9.32724 14 9.52M7.875 9.625C8.80326 9.625 9.6935 9.25625 10.3499 8.59987C11.0063 7.9435 11.375 7.05326 11.375 6.125C11.375 5.19674 11.0063 4.3065 10.3499 3.65013C9.6935 2.99375 8.80326 2.625 7.875 2.625C6.94674 2.625 6.0565 2.99375 5.40013 3.65013C4.74375 4.3065 4.375 5.19674 4.375 6.125C4.375 7.05326 4.74375 7.9435 5.40013 8.59987C6.0565 9.25625 6.94674 9.625 7.875 9.625Z" stroke="var(--stroke-0, #163300)" stroke-width="1.75" stroke-linecap="round" stroke-linejoin="round"/>
</g>
</svg>
