<svg preserveAspectRatio="none" width="100%" height="100%" overflow="visible" style="display: block;" viewBox="0 0 21 21" fill="none" xmlns="http://www.w3.org/2000/svg">
<g id="Frame">
<path id="Vector" d="M10.5 2.625V5.25M10.5 15.75V18.375M2.625 10.5H5.25M15.75 10.5H18.375M10.5 6.125C9.33968 6.125 8.22688 6.58594 7.40641 7.40641C6.58594 8.22688 6.125 9.33968 6.125 10.5C6.125 11.6603 6.58594 12.7731 7.40641 13.5936C8.22688 14.4141 9.33968 14.875 10.5 14.875C11.6603 14.875 12.7731 14.4141 13.5936 13.5936C14.4141 12.7731 14.875 11.6603 14.875 10.5C14.875 9.33968 14.4141 8.22688 13.5936 7.40641C12.7731 6.58594 11.6603 6.125 10.5 6.125Z" stroke="var(--stroke-0, #269C80)" stroke-width="1.75" stroke-linecap="round"/>
</g>
</svg>
