<svg width="60" height="55" viewBox="0 0 60 55" fill="none" xmlns="http://www.w3.org/2000/svg">
<rect width="60" height="55" fill="#1E1E1E"/>
<g id="footer">
<rect width="1424" height="413" transform="translate(-112 -72)" fill="black"/>
<g id="div">
<g id="div_2">
<g id="div_3">
<g id="RM logo">
<g id="Frame 2147223366">
<g id="Frame 2147223332">
<g id="Rectangle [Vectorized]" clip-path="url(#clip0_0_1)">
<path id="Vector" d="M0.276455 0H0.410441C0.476618 0.0887279 0.741954 0.333427 0.839605 0.428078C1.121 0.698718 1.39912 0.972747 1.6739 1.25011L5.5581 5.1042L14.1805 13.7527L18.2859 17.8661C19.0901 18.6693 19.8997 19.4769 20.6995 20.2853C20.7655 20.3519 20.9191 20.5262 20.9235 20.612C20.9499 21.1268 20.9398 21.6662 20.9398 22.183L20.9388 25.105L20.9402 29.0069C20.9405 29.6749 20.9631 30.5253 20.9284 31.1799C20.8047 31.354 20.5185 31.6276 20.3537 31.7965L19.4615 32.7253C18.2344 34.0082 16.9563 35.2498 15.749 36.5509C15.4246 36.9004 14.198 38.034 14.051 38.352C14.1363 38.5576 14.9347 39.3095 15.1559 39.5379L17.4267 41.8733L23.0798 47.7348C24.493 49.1906 26.0101 50.7027 27.3725 52.2006C27.6502 52.5055 27.9299 52.8084 28.2113 53.1095C28.461 53.3729 28.8739 53.7085 29.0201 54.0227C29.0039 54.0819 29.0169 54.0728 28.9589 54.1092C28.852 54.1766 28.6521 54.1976 28.5266 54.1993C27.6537 54.2107 26.7818 54.1811 25.9087 54.1851L18.2517 54.1862C17.3832 54.1783 16.4315 54.2312 15.5737 54.1527C15.332 54.1305 14.657 53.3208 14.4427 53.1016L12.0781 50.6646L3.8246 42.1665L1.21881 39.4986C0.941527 39.2159 0.402236 38.7658 0.210083 38.4484C0.335052 38.3528 0.514655 38.1489 0.629313 38.0278C1.08466 37.5463 1.4218 37.1098 1.89394 36.6354L7.16999 31.2408C7.32498 31.0801 7.39301 30.9214 7.52332 30.7863C7.97331 30.3197 8.51419 29.808 8.9594 29.3513C9.21418 29.09 10.2921 28.0596 10.3997 27.8231C10.3912 26.8116 10.416 25.7533 10.4124 24.7297C9.86112 24.1099 8.91051 23.232 8.29791 22.6199L2.63805 17.058L1.07514 15.5332C0.823818 15.285 0.566659 15.0411 0.337349 14.7722C0.273842 14.6986 0.263724 14.6039 0.261507 14.5106C0.23492 13.391 0.248383 12.2491 0.248659 11.1307L0.248826 4.87683C0.248368 3.52899 0.206041 2.18518 0.247202 0.837872C0.255536 0.565094 0.237318 0.268911 0.276455 0Z" fill="#15DEBA"/>
</g>
<g id="Rectangle [Vectorized]_2" clip-path="url(#clip1_0_1)">
<path id="Vector_2" d="M29.5442 11.4458C29.5824 11.4774 29.7752 11.7024 29.8492 11.7756L30.9784 12.8959C32.2743 14.1835 33.6025 15.545 34.913 16.8098C40.5366 22.2885 46.1252 27.803 51.6784 33.353C52.8846 32.1325 54.1322 30.9303 55.3287 29.6967C55.5373 29.4816 55.7273 29.2368 55.9351 29.0269C56.6912 28.2627 57.4503 27.4861 58.2141 26.7307C58.6945 26.2557 59.2904 25.6004 59.8193 25.2102C59.7744 25.6437 59.7922 26.0871 59.7925 26.5248L59.7907 28.5234L59.7572 34.6921L59.7666 54.0537L53.4557 54.0579C52.3578 54.0579 51.2168 54.0441 50.1227 54.0785C50.0965 53.687 50.1207 53.3056 50.1204 52.9136L50.146 49.5878L50.1157 42.8009C49.762 42.382 48.9538 41.6423 48.5266 41.2166C47.2445 39.9285 45.9448 38.6581 44.6278 37.4057C44.1244 36.9219 39.2943 32.0232 39.0898 32.0027C39.0711 32.1203 39.1204 32.2804 39.1148 32.4143C39.0231 34.5947 39.031 36.7654 39.0396 38.9473L39.0395 43.9058C39.0437 46.8449 39.0081 49.7853 39.0751 52.723C39.0852 53.163 39.0103 53.6207 39.0582 54.0589L33.2289 54.0561C32.1391 54.0534 30.5721 54.0115 29.5165 54.0803C29.532 53.4636 29.4872 52.7761 29.4936 52.1431L29.5114 42.1384L29.5134 20.3893L29.5013 13.995C29.5009 13.5298 29.4518 11.7759 29.5442 11.4458Z" fill="white"/>
<path id="Vector_3" d="M49.9336 42.7993L49.9803 42.8458C50.0223 42.9637 49.9992 43.0611 49.9832 43.185L49.9408 43.1476C49.904 43.0484 49.9253 42.9088 49.9336 42.7993Z" fill="black" fill-opacity="0.470588"/>
</g>
</g>
</g>
</g>
</g>
</g>
</g>
</g>
<defs>
<clipPath id="clip0_0_1">
<rect width="29.1215" height="54.4891" fill="white"/>
</clipPath>
<clipPath id="clip1_0_1">
<rect width="30.8785" height="43.061" fill="white" transform="translate(29.1216 11.4203)"/>
</clipPath>
</defs>
</svg>
