<svg width="314" height="41" viewBox="0 0 314 41" fill="none" xmlns="http://www.w3.org/2000/svg">
<rect width="314" height="41" fill="#1E1E1E"/>
<g id="footer">
<rect width="1424" height="413" transform="translate(-112 -233.398)" fill="black"/>
<g id="div">
<g id="div_2">
<g id="div_3">
<g id="div_4">
<g id="LinkedIn">
<rect y="2.59998" width="38" height="38" rx="11" fill="#2E2E2E"/>
<g id="Frame">
<path id="Vector" d="M14.0274 15.5791C14.4971 15.581 14.9468 15.7694 15.2775 16.1028C15.6083 16.4362 15.7931 16.8874 15.7912 17.357C15.7893 17.8267 15.6009 18.2764 15.2675 18.6071C14.9341 18.9379 14.4829 19.1227 14.0133 19.1208C13.5436 19.1189 13.0939 18.9305 12.7632 18.5971C12.4324 18.2637 12.2476 17.8125 12.2495 17.3429C12.2514 16.8732 12.4398 16.4235 12.7732 16.0928C13.1066 15.762 13.5578 15.5772 14.0274 15.5791ZM12.6249 19.4749H15.4583V27.9749H12.6249V19.4749ZM17.5833 19.4749H20.2749V20.6791H20.3104C20.6858 20.0062 21.6066 19.2979 22.9808 19.2979C25.8354 19.2979 26.3666 21.0687 26.3666 23.3708V27.9749H23.5333V24.4333C23.5333 23.5833 23.5191 22.4924 22.3291 22.4924C21.1249 22.4924 20.9408 23.4133 20.9408 24.3695V27.9749H18.1074L17.5833 19.4749Z" fill="#B9B9B9"/>
</g>
</g>
<g id="Twitter">
<rect x="48" y="2.59998" width="38" height="38" rx="11" fill="#2E2E2E"/>
<g id="Frame_2">
<path id="Vector_2" d="M71.8875 14.5166H74.0833L68.9125 20.3958L74.7916 28.6833H70.1166L66.4333 23.9374L62.2541 28.6833H60.0583L65.5833 22.3791L59.6333 14.5166H64.45L67.7791 18.9083L71.8875 14.5166ZM71.1083 27.3374H72.3125L63.6708 15.7916H62.3958L71.1083 27.3374Z" fill="#B9B9B9"/>
</g>
</g>
<g id="Instagram">
<rect x="96" y="2.59998" width="38" height="38" rx="11" fill="#2E2E2E"/>
<g id="Frame_3">
<path id="Vector_3" d="M117.833 15.225H112.167C110.211 15.225 108.625 16.8106 108.625 18.7666V24.4333C108.625 26.3893 110.211 27.975 112.167 27.975H117.833C119.789 27.975 121.375 26.3893 121.375 24.4333V18.7666C121.375 16.8106 119.789 15.225 117.833 15.225Z" stroke="#B9B9B9" stroke-width="1.41667"/>
<path id="Vector_4" d="M115 24.4333C116.565 24.4333 117.833 23.1647 117.833 21.5999C117.833 20.0351 116.565 18.7666 115 18.7666C113.435 18.7666 112.167 20.0351 112.167 21.5999C112.167 23.1647 113.435 24.4333 115 24.4333Z" stroke="#B9B9B9" stroke-width="1.41667"/>
<path id="Vector_5" d="M118.896 18.5541C119.365 18.5541 119.746 18.1736 119.746 17.7041C119.746 17.2347 119.365 16.8541 118.896 16.8541C118.426 16.8541 118.046 17.2347 118.046 17.7041C118.046 18.1736 118.426 18.5541 118.896 18.5541Z" fill="#B9B9B9"/>
</g>
</g>
</g>
</g>
</g>
</g>
</g>
</svg>
