<svg width="25" height="25" viewBox="0 0 25 25" fill="none" xmlns="http://www.w3.org/2000/svg">
<path d="M3.10156 9.30543H21.7124M9.30519 21.7127V9.30543M5.16944 5.16968H19.6446C20.193 5.16968 20.719 5.38754 21.1068 5.77534C21.4946 6.16315 21.7124 6.68912 21.7124 7.23755V19.6448C21.7124 20.1932 21.4946 20.7192 21.1068 21.107C20.719 21.4948 20.193 21.7127 19.6446 21.7127H5.16944C4.621 21.7127 4.09503 21.4948 3.70723 21.107C3.31943 20.7192 3.10156 20.1932 3.10156 19.6448V7.23755C3.10156 6.68912 3.31943 6.16315 3.70723 5.77534C4.09503 5.38754 4.621 5.16968 5.16944 5.16968Z" stroke="#67DABE" stroke-width="1.96448" stroke-linecap="round" stroke-linejoin="round"/>
</svg>
