<svg width="156" height="42" viewBox="0 0 156 42" fill="none" xmlns="http://www.w3.org/2000/svg">
<path d="M110.557 9.52539V16.8928H103.299V33.7608H95.9282V18.1153C95.9282 13.3703 99.7731 9.52539 104.518 9.52539H110.557Z" fill="#40196C"/>
<path d="M139.544 31.9778C139.87 31.8432 140.026 31.5916 140.026 31.223C140.026 30.7304 139.65 30.3832 139.144 30.3832H138.088V32.9134H138.623V32.0629H139.02L139.491 32.9134H140.09L139.544 31.9778ZM139.02 31.6341H138.623V30.8261H139.02C139.335 30.8261 139.491 30.9501 139.491 31.2124C139.491 31.4959 139.335 31.6341 139.02 31.6341ZM139.544 31.9778C139.87 31.8432 140.026 31.5916 140.026 31.223C140.026 30.7304 139.65 30.3832 139.144 30.3832H138.088V32.9134H138.623V32.0629H139.02L139.491 32.9134H140.09L139.544 31.9778ZM139.02 31.6341H138.623V30.8261H139.02C139.335 30.8261 139.491 30.9501 139.491 31.2124C139.491 31.4959 139.335 31.6341 139.02 31.6341ZM140.813 29.8622C140.31 29.359 139.7 29.1074 138.998 29.1074C138.297 29.1074 137.687 29.359 137.184 29.8622C136.681 30.3654 136.429 30.9714 136.429 31.6731C136.429 32.3747 136.681 32.9842 137.184 33.4874C137.687 33.9906 138.297 34.2423 138.998 34.2423C139.7 34.2423 140.31 33.9906 140.813 33.4874C141.327 32.9842 141.578 32.3783 141.578 31.6731C141.578 30.9679 141.327 30.3654 140.813 29.8622ZM140.412 33.1012C140.026 33.4874 139.555 33.6894 138.998 33.6894C138.442 33.6894 137.971 33.4874 137.584 33.1012C137.195 32.7007 136.996 32.2294 136.996 31.6731C136.996 31.1167 137.195 30.6454 137.584 30.2591C137.971 29.8622 138.442 29.6602 138.998 29.6602C139.555 29.6602 140.026 29.8622 140.412 30.2591C140.802 30.6454 141.001 31.1202 141.001 31.6731C141.001 32.2259 140.802 32.7007 140.412 33.1012ZM140.026 31.223C140.026 30.7304 139.65 30.3832 139.144 30.3832H138.088V32.9134H138.623V32.0629H139.02L139.491 32.9134H140.09L139.544 31.9778C139.87 31.8432 140.026 31.5916 140.026 31.223ZM139.02 31.6341H138.623V30.8261H139.02C139.335 30.8261 139.491 30.9501 139.491 31.2124C139.491 31.4959 139.335 31.6341 139.02 31.6341ZM139.544 31.9778C139.87 31.8432 140.026 31.5916 140.026 31.223C140.026 30.7304 139.65 30.3832 139.144 30.3832H138.088V32.9134H138.623V32.0629H139.02L139.491 32.9134H140.09L139.544 31.9778ZM139.02 31.6341H138.623V30.8261H139.02C139.335 30.8261 139.491 30.9501 139.491 31.2124C139.491 31.4959 139.335 31.6341 139.02 31.6341ZM139.544 31.9778C139.87 31.8432 140.026 31.5916 140.026 31.223C140.026 30.7304 139.65 30.3832 139.144 30.3832H138.088V32.9134H138.623V32.0629H139.02L139.491 32.9134H140.09L139.544 31.9778ZM139.02 31.6341H138.623V30.8261H139.02C139.335 30.8261 139.491 30.9501 139.491 31.2124C139.491 31.4959 139.335 31.6341 139.02 31.6341Z" fill="#40196C"/>
<path d="M18.7568 9.52455V15.1449C17.35 11.1724 14.3945 9.03906 10.2732 9.03906C3.63584 9.03906 0 14.0782 0 21.6901C0 29.302 3.8272 34.2419 10.7587 34.2419C14.6355 34.2419 17.3996 32.1582 18.7568 28.331V33.76H26.1242V9.52455H18.7568ZM13.0869 27.5549C9.21009 27.5549 7.36736 25.6626 7.36736 21.6901C7.36736 17.7176 9.21009 15.726 13.0869 15.726C16.9637 15.726 18.9978 17.6184 18.9978 21.6901C18.9978 25.7618 17.109 27.5549 13.0869 27.5549Z" fill="#40196C"/>
<path d="M30.3909 9.52539V35.3094H26.1243V41.9999H29.5191C34.4626 41.9999 37.7583 38.7043 37.7583 33.7608V9.52539H30.3909Z" fill="#40196C"/>
<path d="M52.4646 9.03906C45.7139 9.03906 40.0581 13.8372 40.0581 21.6901C40.0581 29.5429 45.7139 34.2419 52.4646 34.2419C59.2154 34.2419 64.8676 29.4933 64.8676 21.6901C64.8676 13.8869 59.2118 9.03906 52.4646 9.03906ZM52.4646 27.5549C48.7225 27.5549 46.9896 25.6626 46.9896 21.6901C46.9896 17.7176 48.7225 15.726 52.4646 15.726C56.2068 15.726 57.9361 17.6184 57.9361 21.6901C57.9361 25.7618 56.2032 27.5549 52.4646 27.5549Z" fill="#40196C"/>
<path d="M124.023 9.03906C117.272 9.03906 111.62 13.8372 111.62 21.6901C111.62 29.5429 117.272 34.2419 124.023 34.2419C130.773 34.2419 136.429 29.4933 136.429 21.6901C136.429 13.8869 130.773 9.03906 124.023 9.03906ZM124.023 27.5549C120.284 27.5549 118.551 25.6626 118.551 21.6901C118.551 17.7176 120.284 15.726 124.023 15.726C127.761 15.726 129.498 17.6184 129.498 21.6901C129.498 25.7618 127.765 27.5549 124.023 27.5549Z" fill="#40196C"/>
<path d="M83.0077 9.03906C78.8864 9.03906 75.931 11.1724 74.5241 15.1449V9.52455H67.1567V41.9991H74.5241V28.331C75.8813 32.1582 78.6454 34.2419 82.5222 34.2419C89.4537 34.2419 93.2845 29.2027 93.2845 21.6901C93.2845 14.1774 89.6486 9.03906 83.0077 9.03906ZM80.1976 27.5549C76.1755 27.5549 74.2831 25.6626 74.2831 21.6901C74.2831 17.7176 76.1755 15.726 80.1976 15.726C84.2197 15.726 85.9171 17.6184 85.9171 21.6901C85.9171 25.7618 84.0744 27.5549 80.1976 27.5549Z" fill="#40196C"/>
<path d="M154.8 2.74283C154.8 2.74283 154.786 2.73574 154.782 2.73574L154.591 2.67195C154.573 2.66487 154.552 2.65778 154.53 2.65424L148.18 0.41107L147.074 0L145.441 0.595343L145.395 0.613061L139.583 2.66487C139.583 2.66487 139.569 2.66487 139.558 2.67195L139.367 2.73574C139.367 2.73574 139.356 2.73928 139.349 2.74283C138.92 2.94128 138.619 3.37715 138.619 3.8839V14.8091C138.619 15.3053 138.906 15.7341 139.324 15.9325C139.324 15.9325 139.327 15.9337 139.331 15.936L139.569 16.0211C139.569 16.0211 139.576 16.0246 139.579 16.0246L147.074 18.7179L154.58 16.0211L154.817 15.936C155.239 15.7376 155.53 15.3088 155.53 14.8091V3.8839C155.53 3.37715 155.228 2.94128 154.8 2.74283ZM152.518 13.5618L147.074 15.5143L141.635 13.5582V8.67145H152.518V13.5618Z" fill="#3FD387"/>
</svg>
